<svg xmlns="http://www.w3.org/2000/svg" viewBox="0 0 1191.68 1059.84"><defs><style>.a,.c,.f,.g{fill:none;}.a,.b,.c,.i,.j,.k,.l{stroke:#000;}.a,.b,.c,.d,.e,.f,.g,.i,.j,.k,.l{stroke-miterlimit:10;}.a{stroke-width:12px;stroke-dasharray:23.79 23.79;}.b,.h,.i,.j,.k{fill:#fff;}.b,.c{stroke-width:23.2px;}.d,.e,.f,.g{stroke:#fff;}.d,.f{stroke-width:10.05px;}.e{stroke-width:9.17px;}.f,.j,.k,.l{stroke-linecap:round;}.g{stroke-width:4.31px;}.i{stroke-width:0.45px;}.j{stroke-width:8.85px;}.k{stroke-width:6.32px;}.l{stroke-width:7.58px;}</style></defs><circle class="a" cx="601.83" cy="532.06" r="424"/><path class="b" d="M657.11,787.16,711.85,1044s127.95-60.81,224.63-24c0,0,119-57.5,251,20.5l53.94-253.34S1088.6,645.53,942.17,774.35C942.17,774.35,800.7,639.93,657.11,787.16Z" transform="translate(-341.17 -0.94)"/><line class="b" x1="601" y1="773.41" x2="595.31" y2="1019.06"/><circle class="b" cx="596.48" cy="550.17" r="85.61"/><path class="c" d="M794.42,718.34s33.61-60,143.23-62.41,156.28,64.66,156.28,64.66" transform="translate(-341.17 -0.94)"/><ellipse class="b" cx="352.2" cy="912.64" rx="43.36" ry="48.81"/><ellipse class="b" cx="867.57" cy="912.64" rx="43.36" ry="48.81"/><path class="d" d="M807.49,154.67v75.8s86.76,10.05,143.39,63.93c0,0,72.14-44.75,149.77-63.93v-84Z" transform="translate(-341.17 -0.94)"/><polygon class="e" points="361.9 120.41 613.55 5.07 853.34 120.41 608.08 229.36 361.9 120.41"/><polyline class="f" points="714.59 279.76 714.59 182.04 612.9 117.63"/><path d="M1049.51,322.71s4.57-8.22,0-12.78-10-30.14,9.13-29.23S1068.69,317.23,1049.51,322.71Z" transform="translate(-341.17 -0.94)"/><polygon points="0 643.68 416.83 643.68 370.95 522.9 69.8 522.9 0 643.68"/><polygon class="g" points="25.78 630.74 391.18 630.74 350.96 535.45 86.96 535.45 25.78 630.74"/><path d="M711.34,516.39H410.18V348.67a11.09,11.09,0,0,1,11.09-11.09h279a11.09,11.09,0,0,1,11.1,11.09Z" transform="translate(-341.17 -0.94)"/><rect class="h" x="78.82" y="361.73" width="281.55" height="139.99"/><line class="g" x1="118.95" y1="535.45" x2="84.11" y2="630.74"/><line class="g" x1="162.8" y1="535.45" x2="153.79" y2="630.74"/><line class="g" x1="215.06" y1="535.45" x2="212.06" y2="630.74"/><line class="g" x1="266.72" y1="535.45" x2="275.73" y2="630.74"/><line class="g" x1="309.97" y1="535.45" x2="334.6" y2="630.74"/><line class="g" x1="71.21" y1="559.98" x2="361.32" y2="559.98"/><line class="g" x1="51.75" y1="590.29" x2="374.11" y2="590.29"/><circle class="i" cx="221.34" cy="348.57" r="8.39"/><path class="j" d="M1165.36,395.3h339.36A23.72,23.72,0,0,1,1528.43,419v24.66a23.72,23.72,0,0,1-23.71,23.71H1165.36" transform="translate(-341.17 -0.94)"/><path class="k" d="M1183.51,395.57q16.63,35.91,0,71.81" transform="translate(-341.17 -0.94)"/><line class="h" x1="850.74" y1="418.75" x2="950.45" y2="418.75"/><path d="M1191.91,416.53l99.71,3.16-99.71,3.16a3.16,3.16,0,1,1-.2-6.32Z" transform="translate(-341.17 -0.94)"/><line class="h" x1="850.74" y1="447.28" x2="1057.48" y2="447.2"/><path d="M1191.91,444.43l206.73,3.71L1191.91,452a3.79,3.79,0,0,1-.14-7.58Z" transform="translate(-341.17 -0.94)"/><path class="j" d="M1165.27,565.93h339.36a23.71,23.71,0,0,1,23.71,23.7v24.66A23.71,23.71,0,0,1,1504.63,638H1165.27" transform="translate(-341.17 -0.94)"/><path class="k" d="M1183.42,566.2q16.63,35.89,0,71.8" transform="translate(-341.17 -0.94)"/><line class="h" x1="850.65" y1="589.37" x2="950.36" y2="589.37"/><path d="M1191.82,587.15l99.71,3.16-99.71,3.16a3.16,3.16,0,0,1-.2-6.32Z" transform="translate(-341.17 -0.94)"/><line class="h" x1="850.65" y1="617.9" x2="1057.38" y2="617.82"/><path d="M1191.82,615.05l206.73,3.71-206.73,3.88a3.8,3.8,0,0,1-.14-7.59Z" transform="translate(-341.17 -0.94)"/><path class="j" d="M1528.34,481.39H1189a23.71,23.71,0,0,0-23.7,23.71v24.66a23.7,23.7,0,0,0,23.7,23.7h339.37" transform="translate(-341.17 -0.94)"/><line class="h" x1="1160.62" y1="504.84" x2="1060.91" y2="504.84"/><path d="M1501.78,508.94l-99.71-3.16,99.71-3.16a3.16,3.16,0,0,1,.2,6.32Z" transform="translate(-341.17 -0.94)"/><line class="h" x1="1160.62" y1="533.37" x2="953.88" y2="533.29"/><path d="M1501.78,538.1l-206.73-3.87,206.73-3.71a3.79,3.79,0,1,1,.14,7.58Z" transform="translate(-341.17 -0.94)"/><polygon class="l" points="872.54 481.26 872.54 601.37 900.06 569.94 918.48 601.91 918.48 480.99 872.54 481.26"/><path class="k" d="M1510.18,481.66q-16.64,35.91,0,71.8" transform="translate(-341.17 -0.94)"/></svg>